/* XPM */
static char *_4670e887a814524dd0ab4e8819ef420Y5Q1j24oFcz7nEW3[] = {
/* columns rows colors chars-per-pixel */
"32 32 3 1 ",
"  c #FF000000",
". c #696969",
"X c #ED1C24",
/* pixels */
"                                ",
"                                ",
"                                ",
"                                ",
"                .               ",
"                .               ",
"               .X.              ",
"               .X.              ",
"              .XXX.             ",
"              .XXX.             ",
"             .XXXXX.            ",
"             .XXXXX.            ",
"             .XXXXX.            ",
"            .XXXXXXX.           ",
"            .XXXXXXX.           ",
"           .XXXXXXXXX.          ",
"           .XXXXXXXXX.          ",
"          .XXXXXXXXXXX.         ",
"          .XXXXXXXXXXX.         ",
"         .XXXXXXXXXXXXX.        ",
"         .XXXXXX.XXXXXX.        ",
"         .XXXXX. .XXXXX.        ",
"        .XXXX..   ..XXXX.       ",
"        .XXX.       .XXX.       ",
"       .XXX.         .XXX.      ",
"       .X..           ..X.      ",
"      .X.               .X.     ",
"      ..                 ..     ",
"                                ",
"                                ",
"                                ",
"                                "
};
