/* XPM */
static char *_c4cf5b12d8f4a05892adefbee2a39c7aqSK7Plw6VDfvhYv[] = {
/* columns rows colors chars-per-pixel */
"64 64 250 2 ",
"   c #26151B",
".  c #2A151A",
"X  c #1C152A",
"o  c #241C34",
"O  c #281E39",
"+  c #3A2726",
"@  c #292237",
"#  c #2A223C",
"$  c #342B3C",
"%  c #472627",
"&  c #542B2C",
"*  c #4B2E32",
"=  c #483438",
"-  c #573738",
";  c #673B3A",
":  c #773332",
">  c #72423A",
",  c #340D4B",
"<  c #38184B",
"1  c #3D0C58",
"2  c #3E1355",
"3  c #2B2441",
"4  c #2F2842",
"5  c #352A45",
"6  c #3A3247",
"7  c #391A6F",
"8  c #3A2666",
"9  c #41095F",
"0  c #411459",
"q  c #463D4A",
"w  c #563449",
"e  c #4B2C54",
"r  c #542958",
"t  c #58345C",
"y  c #6B3B4E",
"u  c #480E6A",
"i  c #4B1465",
"p  c #581A6C",
"a  c #581776",
"s  c #601A7F",
"d  c #592968",
"f  c #5C3367",
"g  c #5B2272",
"h  c #4F3178",
"j  c #493578",
"k  c #612D6C",
"l  c #653B68",
"z  c #763A67",
"x  c #652A78",
"c  c #6C3875",
"v  c #743B79",
"b  c #554348",
"n  c #564B59",
"m  c #684745",
"M  c #764A47",
"N  c #76524B",
"B  c #6D4D56",
"V  c #795759",
"C  c #55487C",
"Z  c #6A4469",
"A  c #764569",
"S  c #675966",
"D  c #785865",
"F  c #7B536C",
"G  c #744274",
"H  c #7B4977",
"J  c #73427A",
"K  c #7C457C",
"L  c #715575",
"P  c #7B6668",
"I  c #6F6672",
"U  c #80463B",
"Y  c #8D4D4E",
"T  c #83554D",
"R  c #885856",
"E  c #9A5B59",
"W  c #A55B51",
"Q  c #896258",
"!  c #97655A",
"~  c #A6695A",
"^  c #B56A5C",
"/  c #845867",
"(  c #815D6D",
")  c #83497B",
"_  c #845B73",
"`  c #865779",
"'  c #8B5B7C",
"]  c #945D70",
"[  c #B55B6F",
"{  c #83636B",
"}  c #89666B",
"|  c #8B6B6E",
" . c #996865",
".. c #92736D",
"X. c #856372",
"o. c #8B6474",
"O. c #856A75",
"+. c #8C6C73",
"@. c #8C637B",
"#. c #8D6C7B",
"$. c #936C75",
"%. c #92647F",
"&. c #936C7B",
"*. c #976C7A",
"=. c #8D7274",
"-. c #8B7379",
";. c #937474",
":. c #93747A",
">. c #9B737B",
",. c #967979",
"<. c #9B7B7D",
"1. c #A76A66",
"2. c #B56B68",
"3. c #AA7468",
"4. c #B67769",
"5. c #A77977",
"6. c #B97A74",
"7. c #C17C6D",
"8. c #C67B74",
"9. c #9B8479",
"0. c #A6847E",
"q. c #BB8173",
"w. c #C78577",
"e. c #D28879",
"r. c #E0917F",
"t. c #492688",
"y. c #53368C",
"u. c #4E2B90",
"i. c #532B97",
"p. c #552D9C",
"a. c #583794",
"s. c #6A2485",
"d. c #6C2D83",
"f. c #762F8D",
"g. c #783789",
"h. c #7C3C8C",
"j. c #7D3593",
"k. c #592FA1",
"l. c #5C33A4",
"z. c #6339AC",
"x. c #673AB3",
"c. c #584685",
"v. c #5A4094",
"b. c #7C4487",
"n. c #6D5096",
"m. c #766C8E",
"M. c #6946A5",
"N. c #704EAE",
"B. c #7558A7",
"V. c #6E43B8",
"C. c #7B57B9",
"Z. c #7B68A5",
"A. c #7C61B4",
"S. c #7647C5",
"D. c #7D53C6",
"F. c #813B8A",
"G. c #823C8D",
"H. c #843697",
"J. c #833D93",
"K. c #884787",
"L. c #844B82",
"P. c #83438C",
"I. c #8C5383",
"U. c #8A5785",
"Y. c #945A86",
"T. c #884593",
"R. c #934C98",
"E. c #8F5295",
"W. c #995699",
"Q. c #876E8D",
"!. c #936482",
"~. c #996C83",
"^. c #996788",
"/. c #977785",
"(. c #9C7383",
"). c #9C7C83",
"_. c #9E6295",
"`. c #A46C8C",
"'. c #A27586",
"]. c #A27B83",
"[. c #A7778A",
"{. c #A47B8B",
"}. c #AA7C8C",
"|. c #B47C89",
" X c #A36795",
".X c #A3639C",
"XX c #AA7492",
"oX c #A87993",
"OX c #B37B94",
"+X c #9C5AA2",
"@X c #A15CA1",
"#X c #8872AB",
"$X c #876ABB",
"%X c #8B72B9",
"&X c #8159C3",
"*X c #8B68C5",
"=X c #9777CC",
"-X c #9D8185",
";X c #948799",
":X c #A58383",
">X c #AA8484",
",X c #A88887",
"<X c #AC858A",
"1X c #AD8B8C",
"2X c #B5878B",
"3X c #B2848D",
"4X c #B18C8D",
"5X c #B2908F",
"6X c #AD8893",
"7X c #B48392",
"8X c #B98593",
"9X c #B38D91",
"0X c #BC8B93",
"qX c #BB9597",
"wX c #B2A898",
"eX c #968DAD",
"rX c #AD9AA4",
"tX c #A598B4",
"yX c #AFA8B4",
"uX c #C78A83",
"iX c #D68D83",
"pX c #C19886",
"aX c #D79486",
"sX c #C39497",
"dX c #E59B8B",
"fX c #C9A896",
"gX c #E8A599",
"hX c #F0A397",
"jX c #C5B4AC",
"kX c #EEB5AA",
"lX c #D6CCB5",
"zX c #DACFB5",
"xX c #E9CAB6",
"cX c #9D89C6",
"vX c #A790C8",
"bX c #B5B2CF",
"nX c #CAB6C8",
"mX c #D3CAD0",
"MX c #E8DBC9",
"NX c #E9E3C4",
"BX c #EFE7CC",
"VX c #F1E4C6",
"CX c #F2EACD",
"ZX c #F1E8D1",
"AX c #F7F0D0",
"SX c #FDF6D5",
"DX c #FFF8D6",
"FX c #D5D5EE",
"GX c #D8D7EA",
"HX c #E8E8F8",
/* pixels */
"t f G Z G Z G l A L.b.J v K K L.l l G Z G Z G l H K K J J K K G t v l G Z G l Z L.K K v J K L.Z l G Z G Z G l A b.b.J v K b.L.t ",
"l o.{ { @.D { $.o.&.>.)./.].].O.&.| { { X.{ +.$.X.].)././.].].o.+.+.{ _ { | +.$.+.].]./.(.>.&.o.$.X.( @.( { $.O.>.].(./.].].o._ ",
"c 5.:X4X<X4X:X:X].4X3X<XqX<X<X<X>X0.,X4X<X4X0.:X>X<X<X9XqX4X3X>X:X0.4X<X<X,X0.:X<X<X>XsX3X<X3X}.].>X4X<X4X0.:X>X3X<X4XsX>X<X<X5.",
"r ) ' H G H ' U.) ' '.{.}.}.~.U.I.` ' G H ) ` Y.L.!.[.}.6X[.%.I.U.` ` H G ` ` I.I.(.}.}.oX'.' L.' _ H H H _ U.K ' '.{.<X}.~.I.L.",
"g.I.%.F #.( _ !.[.oX3X0X7XsX}.oX[.!._ X.#.B ~.^.[.}.0X8X0X0X}.oX^.~.D #.X.F %.'.XX}.sX7X0X3XXX[.Y._ { #.D @.!.[.oX2X0X7XsX}.oX^.",
"d K c L.L.I.c L.Y.`.OX X X`.OXY.I.P.c I.I.G g.I.Y.XXXX X XXXXXI.I.g.H I.I.c P.I.Y.OX`. X_.OX XI.L.x I.L.) v L.I.`.OX^. X`.OXY.L.",
"0 J.h.T.J.J.b.T.G.K.W.W.W.W.W.G.j.G.g.j.j.g.h.G.j.E.W.W.W.W.R.g.G.g.g.j.j.g.h.j.G.W.W.W.W.W.P.f.G.g.h.j.j.g.T.f.T.W.W.W.@XW.P.j.",
"5 d.J b.b.h.J s.0 i a u , a a , , 0 1 9 9 1 2 1 , a a 1 0 s a , 1 2 1 9 9 1 0 , < a a , p a i , 1 2 9 9 1 2 1 , d T.T.b.R.W.c d.",
"d T.f.h.J.G.s.a zXNXNXNXNXNXNXNXNXNXNXNXNXNXNXNXNXNXNXNXNXNXNXNXNXNXNXNXNXNXNXNXNXNXNXNXNXNXNXNXNXNXNXNXNXNXNXNXzXj.@X+X.X_.E.J.",
"c ^.!.oX^.`.U.s.NXDXDXDXDXDXDXDXDXDXDXDXDXDXDXDXDXDXDXDXDXDXDXDXDXDXDXDXDXDXDXDXDXDXDXDXDXDXDXDXDXDXDXDXDXDXDXDXCXG.^.^.}.OX^.`.",
"v Y.%.:.O.:._ p NXDXDXDXDXDXDXDXDXDXDXDXDXDXDXDXDXDXDXDXDXDXDXDXDXDXDXDXDXDXDXDXDXDXDXDXDXDXDXDXDXDXDXDXDXDXDXDXCXv 3X3X8X'.`.`.",
"l %.&.).{.).o.k NXDXDXDXDXDXDXDXDXDXDXDXDXDXDXDXDXDXDXDXDXDXDXDXDXDXDXDXDXDXDXDXDXDXDXDXDXDXDXDXDXDXDXDXDXDXDXDXCXv (.(.{.(.!.^.",
"G >X,X4X9X4X>XA NXDXDXDXDXDXDXDXDXDXDXDXDXDXDXDXDXDXDXDXDXDXDXDXDXDXDXDXDXDXDXDXDXDXDXDXDXDXDXDXDXDXDXDXDXDXDXDXCX) 4XqX4X4X9X>X",
"l o.{ | /.+.{ r NXDXDXDXDXDXDXDXDXDXDXDXDXDXDXDXDXDXDXDXDXDXDXDXDXDXDXDXDXDXDXDXDXDXDXDXDXDXDXDXDXDXDXDXDXDXDXDXCXc '.-X,X].&.$.",
"f | <.<.:.).<.w NXDXDXDXDXDXDXDXDXDXDXDXDXDXDXDXDXDXDXDXDXDXDXDXDXDXDXDXDXDXDXDXDXDXDXDXDXDXDXDXDXDXDXDXDXDXDXDXCX) :X>X1X1X<X{ ",
"k D ;.<.O.).;.w NXDXDXDXDXDXDXDXDXDXDXDXDXDXDXDXDXDXDXDXDXDXDXDXDXDXDXDXDXDXDXDXDXDXDXDXDXDXDXDXDXDXDXDXDXDXDXDXCX) <X1X9X1X6XD ",
"f } =.;.:.;.| w NXDXDXDXDXDXDXDXDXDXDXDXDXDXDXDXDXDXDXDXDXDXDXDXDXDXDXDXDXDXDXDXDXDXDXDXDXDXDXDXDXDXDXDXDXDXDXDXCXz +.| <.:X>.{ ",
"l :.).-X,X-X<.y NXDXDXDXDXDXDXDXSXMXtXZ.#XB.C.$X%X*X$X&X*XnXMXZXZXMXnXbXmXDXDXDXDXDXDXDXDXDXDXDXDXDXDXDXDXDXDXDXCXG 9XqX4X<X].&.",
"v '.>.~.~.~.*.z NXDXDXDXDXDXDXlXtXc.j n.y.7 7 h u.N.=XS.S.&XcX=X=X*XS.D.=XBXDXDXDXDXDXDXDXDXDXDXDXDXDXDXDXDXDXDXCX) '.<X}.}.{.}.",
"f ) &.&.'.&.( d NXDXDXDXDXDXjXc.c.c.n.C c.7 t.u.$XZ.#X&XS.S.=XvX*XV.x.z.M.mXDXDXDXDXDXDXDXDXDXDXDXDXDXDXDXDXDXDXCXv {.}.}.(.^.L.",
"v Y.' &.' o.) p NXDXDXDXDXDXeXj 8 v.%XZ.cXz.z.l.C.cX%X$Xx.S.S.S.D.V.z.N.a.mXDXDXDXDXDXDXDXDXDXDXDXDXDXDXDXDXDXDXCXP.XXOX8X0X`.`.",
"d P.c E.T.K.x i NXDXDXDXDXDX;X8 j t.M.B.k.z.l.l.z.C.z.x.x.x.V.V.V.S.D.cXB.MXDXDXDXDXDXDXDXDXDXDXDXDXDXDXDXDXDXDXCXs.E.W._.Y.I.K.",
"< g.b.h.h.h.g.i NXDXDXDXDXDX#Xj B.N.p.p.k.k.k.l.z.x.x.z.v.x.x.x.V.V.V.$XeXmXSXDXDXDXDXDXDXDXDXDXDXDXDXDXDXDXDXDXCXa R.R.+XW.J s.",
"< g.b.b.P.h.g.0 NXDXDXDXDXDXQ.h Z.A.i.p.k.V.$XV.x.z.z.z.x.&X*X$X=X*XN.M.M.tXSXDXDXDXDXDXDXDXDXDXDXDXDXDXDXDXDXDXCXg E.K.+XW.b.d.",
"x T.d.E.T.T.x a NXDXDXDXDXDX;Xc.n.B.p.p.z.#XZ.$Xz.l.z.z.%X%X$Xm.$X#X$XM.z.#XAXDXDXDXDXDXDXDXDXDXDXDXDXDXDXDXDXDXCXf.W._.XX X_.E.",
"J Y.!.o.` @.` g NXDXDXDXDXDXeXn.$Xp.p.u.M.%X%Xl.l.a.z.*XC.m.Z.%X$X#X$X#Xz.M.MXDXDXDXDXDXDXDXDXDXDXDXDXDXDXDXDXDXCXP.[.OX7X8X^.^.",
"k ' >.:.'.:.o.p NXDXDXDXDXDXeXB.a.u.u.p.p.p.k.p.k.k.z.C.#XB.*XC.%XB.B.#XM.M.mXDXDXDXDXDXDXDXDXDXDXDXDXDXDXDXDXDXCXv 3X7X0X{.`.U.",
"J *.#.]./.).o.l NXDXDXDXDXDX;Xy.i.Z.y.u.p.p.p.k.k.p.z.A.B.B.B.C.#XcX$Xn.B.a.yXDXDXDXDXDXDXDXDXDXDXDXDXDXDXDXDXDXCXK (.6X'.{.(.(.",
"l ].,.0.>X:X<.A NXDXDXDXDXDXyXy.a.c.M.i.u.i.l.k.p.h b.` A / E Y M y f B.Z.y.#XDXDXDXDXDXDXDXDXDXDXDXDXDXDXDXDXDXCXH sXfXqX>X[.5.",
"l o.(.O.#.#.:.r NXDXDXDXDXDXrXj y.Z.y.t.C.Z.Z.h A  .1.8.w.6.4.w.w.6.1.R l a.n.DXDXDXDXDXDXDXDXDXDXDXDXDXDXDXDXDXCXc ~./.(.:X/.X.",
"l D <.<.O.).<.w NXDXDXDXDXDXjXj 7 v.t.t.n.Z D m m ; y M 1.uXiXuXR m > M N * h CXDXDXDXDXDXDXDXDXDXDXDXDXDXDXDXDXCX) <X4X4X1X1XD ",
"f } <.).-.-X,.w NXDXDXDXDXDXBXL j 7 < y  .q. .N - & & ; T 2.8. .; % % - m - O lXDXDXDXDXDXDXDXDXDXDXDXDXDXDXDXDXCXH :X:X1X,X1XP ",
"t / X.D @.D ( e NXDXDXDXDXDXAXL O   m 6.w.4.M & - - % & ; E 2.; % + % % M R   jXDXDXDXDXDXDXDXDXDXDXDXDXDXDXDXDXCXl @.#.>.(.o./ ",
"A 2X0.5X5X5X0.A NXDXDXDXDXDXxXE     R w.6.! ; m n n V & m uXuX- % = S - ; ! + fXDXDXDXDXDXDXDXDXDXDXDXDXDXDXDXDXCX) 9XqX9X1X4X<X",
"f F _ >.~.>.F r NXDXDXDXDXzXW : M . R w.w.3.3.5.R V  .R 3.gXkXT M - B / M 1.& E VXDXDXDXDXDXDXDXDXDXDXDXDXDXDXDXCXk ' ^.!.%.U.` ",
"J @.&.&.'.&._ p NXDXDXDXDXfX: 1.! - ! 7.e.aXaXuX .E  .6.dXgXkX6.R T T  .3.4.: : xXDXDXDXDXDXDXDXDXDXDXDXDXDXDXDXCXv |.oX8X{.7X~.",
"l ' ) ~.^.>.H g NXDXDXDXDXlX2.7.Y 6.1.7.iXgXgXiX6.1.6.dXdXgXkXe.4.E 3.q.w.6.E E CXDXDXDXDXDXDXDXDXDXDXDXDXDXDXDXCXF.Y. X`.OXI.' ",
"i H.d.P.J.j.d.u NXDXDXDXDXMXiX^ 7.aX3.q.w.e.aXaXe.dXdXdXgXgXxXgXe.w.2.w.aX6.W 6.DXDXDXDXDXDXDXDXDXDXDXDXDXDXDXDXCXs._._. X XE.H.",
"< d.g.b.h.b.v 1 NXDXDXDXDXAXaXr.iXuX3.4.4.4.7.8.iXdXW e.hXgXkXgXiX^ e.7.4.3.^ fXDXDXDXDXDXDXDXDXDXDXDXDXDXDXDXDXCXg J.b.R.W.c s.",
"e h.g.P.J.P.d.u NXDXDXDXDXSXgXhXgXuX5.3.4.~ ~ ^ e.W : E 1.1.~ ! 3.> ^ 2.~ ~ w.xXDXDXDXDXDXDXDXDXDXDXDXDXDXDXDXDXCXx +X+X+XW.b.h.",
"d L.J U.E.U.c p NXDXDXDXDXDXMXuX4.q.5.3.4.~ ~ 4.7.Y 3.R - y & & > U Y ~ ! ~ w.VXDXDXDXDXDXDXDXDXDXDXDXDXDXDXDXDXCXj._. XXXXXY.L.",
"T.Y.%.>.{.>._ p NXDXDXDXDXDXDXjXT 3.3.3.1.3.4.4.7.2.sX|.B % . -  .! Y ~ ! ! pXSXDXDXDXDXDXDXDXDXDXDXDXDXDXDXDXDXCXK.OX7X0X7XOX`.",
"e F _ F _ ( F r NXDXDXDXDXDXDXzXR  . . .! 3.4.q.w.uX|.6.E y ; T  . .~ ~ ! 0.CXDXDXDXDXDXDXDXDXDXDXDXDXDXDXDXDXDXCXc (.{.'.&.' H ",
"v >X:X4X<X4X5.A NXDXDXDXDXDXAXP D  . . .! 3.4.w.w.6.T Y [ E y y ; T 1.~ ! fXDXDXDXDXDXDXDXDXDXDXDXDXDXDXDXDXDXDXCX) 3XqX<X<X<X5.",
"Z &.+.+./.+.+.t NXDXDXDXDXSXwX# tX .R R Q ! 3.q.4.T 3.6.1.R Y ] E ; R ! Q lXDXDXDXDXDXDXDXDXDXDXDXDXDXDXDXDXDXDXCXG 6X6X6X:X:.:.",
"l | ,.<.).<.;.w NXDXDXDXDXwX6 # tX6XM m N T ! 1.! 4.3.M & & & % M T M T ..CXDXDXDXDXDXDXDXDXDXDXDXDXDXDXDXDXDXDXCXG <.<.:X>X>X{ ",
"c D <.:XZ -X,.w NXDXDXAX1X5 3 3 S GXD ; - m N T !  .> ; R T M ; ; T m N lXDXDXDXDXDXDXDXDXDXDXDXDXDXDXDXDXDXDXDXCX) <X1X9X,X4XP ",
"t } <.;.).;.;.w NXSXzXP 4 3 3 3 3 GXbXS - m M N N N N  . .R T T > M m wXDXDXDXDXDXDXDXDXDXDXDXDXDXDXDXDXDXDXDXDXCXc 5.].:X:X>X{ ",
"t o.+.D ' F o.t wXI 5 # 3 3 # 3 3 m.HXvXI - b m m Q ..} m M ; M R m 9.AXDXDXDXDXDXDXDXDXDXDXDXDXDXDXDXDXDXDXDXDXCXv {.oX}.}.| _ ",
"v >X5.4X<X4X5.z $ @ o @ # 3 3 # # 5 mXHXeXI = = - m V m * - * * m 9.CXDXDXDXDXDXDXDXDXDXDXDXDXDXDXDXDXDXDXDXDXDXCX) 3X0X<X>X>X].",
"e G ` _ !._ F r O O o o # # # # # # m.HXFXZ.S = + = * + + + % + -XCXSXDXDXDXDXDXDXDXDXDXDXDXDXDXDXDXDXDXDXDXDXDXCXk !.^.^.@.I.K ",
"h.Y.@.&.*.$._ p O o X X # # # # # # 5 mXHXbXm.n + + + + + = - V yXwXAXDXDXDXDXDXDXDXDXDXDXDXDXDXDXDXDXDXDXDXDXDXCXK.|.7X0X3XXX`.",
"d F.c L.K.I.x u o o X X @ # # # # # o ;XFXFXvXn n = + + * - m jXtX# P zXDXDXDXDXDXDXDXDXDXDXDXDXDXDXDXDXDXDXDXDXCXf.Y._.`.XXY.K.",
"0 G.b.P.P.P.g.9 o o X X O O # # # # o q FXFXFXQ.q n b + * m yXGXeXo @ $ -.zXAXDXDXDXDXDXDXDXDXDXDXDXDXDXDXDXDXDXCXs.R.+X@XW.h.f.",
"5 d.J b.b.b.c 1 o o X X O O @ # # # O o bXHXFXbXm.b n S S Q.tXGXtXX @ @ @ $ S jXAXDXDXDXDXDXDXDXDXDXDXDXDXDXDXDXCXa T.b.R.R.l d.",
"g H.d.b.J.h.s.u X o X X o O O # # # o o m.HXGXFXbXeXm.q $ @ q bXyXX # @ @ @ @ $ I lXDXDXDXDXDXDXDXDXDXDXDXDXDXDXCXs.W.W. X XE.J.",
"l I.U.!.^.~.H x o O o o # # # 4 4 5 # # 5 mXFXmXbXbXI $ b q b S yX@ 4 5 $ $ 4 5 5 q wXCXCXCXCXCXCXCXCXAXCXCXCXCXNXY.^.XXoX7XU.Y.",
"c Y.!.O.(.+.o.' P.T.K R.T.R.G J.f.k f c v f d d.j.b.T.T.T.R.G H.d.k f v c d k f.H.J R.P.R.K J.j.k f c v c f x j.T.`.7X7X0X[.[.!.",
"Z %.&.]./.].#.~.~.!.'.'.'.'.~.' ~.@.&.(.(.:.' (.!.!.'.(.'.'.%.!.~.@.:.(.).&.@.~.U.(.(.'.'.'.@.^.@.o.>.~.(.o.!.~.%.{.'.{.'.(.!.~.",
"G }.:X4X9X4X>X<X<X9X4X9XqX4X4X1X4X:X,X9X6X4X:X<X<X9X4XqXqX4X9X<X1X0.5X1X9X,X:X1X9X4X4XqX9X4X9X1X>X>X4X9X4X:X<X1X9X4X9XqX4X4X9X>X",
"l } P =.-X=.{ +.<.+.<.]./.:X).=.<.| } ;.).+.{ ;.:.).]././.].<.:.;.{ | ).:.| } :.:.).:X/.).<.$.:.| { =.).=.{ +.<.:.5.)./.:X).+.| ",
"l | -X,XX.,X,X;.).4X4X:X:X1X>X4X:.,.1X).:.,X-X,.<X>X5X].].5X:X<X;.9.,X:.).1X,.| 4X>X1X].:X1X4X<.=.,X,XO.,X:X=.<.<X4X:X].1X<X4X{ ",
"t D -.+.F =.=.P -.<X<X1X1X1X:X<XD =.:.O.O.+.,.P ).:X1X1X1X1X:X).P ,.+.-.#.=.=.P 1X>X1X1X1X<X1X:.| :.#.P =.:.P -X:X1X4X1X1X:X1XD ",
"r B o.D F D } D F $.$.o.( $.>.$._ / ( D F D } D _ >.$._ X.$.>._ D } D F D ( / F +.>.$.( o.*.$.D D } D F D o.D D >.$.o._ $.>.} A "
};
